Storyline
While staking out his next assignment--the innocent girlfriend of his notorious boss--contract killer Malik reflects on the dark path he's chosen but cannot escape. Torn between his sense of duty and his newfound sense of humanity, he finds that the only way out is a perilous showdown with men who are every bit as cold-blooded as he is. Written by Sujit R. Varma  

Directors: Kantz, Ben Ramsey
Writers: Ben Ramsey, Kantz
Stars: Kent King, Anthony 'Treach' Criss and Charles Guardino

Country: USA
Language: English
Filming Locations: Los Angeles, California, USA
Runtime: 85 min


Format                           : AVI
Format/Info                      : Audio Video Interleave
File size                        : 815 MiB
Duration                         : 1h 25mn
Overall bit rate                 : 1 329 Kbps

Video
ID                               : 0
Format                           : MPEG-4 Visual
Format profile                   : Advanced Simple@L4
Format settings, BVOP            : No
Format settings, QPel            : No
Format settings, GMC             : No warppoints
Format settings, Matrix          : Default (H.263)
Codec ID                         : XVID
Codec ID/Hint                    : XviD
Duration                         : 1h 25mn
Bit rate                         : 1 187 Kbps
Width                            : 640 pixels
Height                           : 360 pixels
Display aspect ratio             : 16:9
Frame rate                       : 29.970 fps
Color space                      : YUV
Chroma subsampling               : 4:2:0
Bit depth                        : 8 bits
Scan type                        : Progressive
Compression mode                 : Lossy
Bits/(Pixel*Frame)               : 0.172
Stream size                      : 728 MiB (89%)
Writing library                  : Magic0432

Audio
ID                               : 1
Format                           : MPEG Audio
Format version                   : Version 1
Format profile                   : Layer 3
Mode                             : Joint stereo
Mode extension                   : MS Stereo
Codec ID                         : 55
Codec ID/Hint                    : MP3
Duration                         : 1h 25mn
Bit rate mode                    : Constant
Bit rate                         : 128 Kbps
Channel(s)                       : 2 channels
Sampling rate                    : 44.1 KHz
Compression mode                 : Lossy
Stream size                      : 78.5 MiB (10%)
Alignment                        : Aligned on interleaves
Interleave, duration             : 26 ms (0.78 video frame)
Writing library                  : LAME3.97
